# xmcd
#
# Track frame offsets: 
#        150
#        18656
#        31201
#        47211
#        62634
#        76951
#        91486
#        100694
#        109785
#        125551
#        138724
#        158451
#        171982
#
# Disc length: 2418 seconds
#
# Revision: 0
# Processed by: cddbd v1.5.2PL0 Copyright (c) Steve Scherf et al.
# Submitted via: ExactAudioCopy v0.99pb3
#
DISCID=a809700d
DTITLE=Various Artist - Music On Wheels
DYEAR=1998
DGENRE=
TTITLE0=Festival Fever
TTITLE1=Convoy
TTITLE2=Hiker
TTITLE3=Roadtrains
TTITLE4=Saloon
TTITLE5=Steep Slope
TTITLE6=Squarely
TTITLE7=Andorra
TTITLE8=Freewheeling
TTITLE9=The Last Voyage
TTITLE10=Wilson
TTITLE11=Kim
TTITLE12=Ride Home
EXTD=
EXTT0=
EXTT1=
EXTT2=
EXTT3=
EXTT4=
EXTT5=
EXTT6=
EXTT7=
EXTT8=
EXTT9=
EXTT10=
EXTT11=
EXTT12=
PLAYORDER=
